<?xml version="1.0" encoding="utf-8"?>
<!-- Generator: Adobe Illustrator 15.0.0, SVG Export Plug-In . SVG Version: 6.00 Build 0)  -->
<!DOCTYPE svg PUBLIC "-//W3C//DTD SVG 1.1//EN" "http://www.w3.org/Graphics/SVG/1.1/DTD/svg11.dtd">
<svg version="1.1" id="Calque_1" xmlns="http://www.w3.org/2000/svg" xmlns:xlink="http://www.w3.org/1999/xlink" x="0px" y="0px"
	 width="72.167px" height="55.869px" viewBox="0 0 72.167 55.869" enable-background="new 0 0 72.167 55.869" xml:space="preserve">
<g>
	<path fill="#A2C7D3" d="M45.89,11l9.777,16.935L45.89,44.869H26.334l-9.777-16.935L26.334,11H45.89 M52.24,0H19.983L3.855,27.935
		l16.128,27.935H52.24l16.129-27.935L52.24,0L52.24,0z"/>
</g>
<path fill="none" stroke="#435257" stroke-width="4" stroke-linecap="round" stroke-linejoin="round" stroke-miterlimit="10" d="
	M69.802,47.33c-7.088-4.813-13.689-11.164-18.151-18.5c-1.135-1.864-2.01-3.979-1.921-6.158c0.304-7.469,9.963-5.806,7.401,0.997
	c-0.836,2.219-2.707,3.883-4.681,5.198c-6.213,4.141-16.076,7.638-23.656,6.364c-6.672-1.12-9.882-3.624-17.152-1.054
	c-2.753,0.973-5.414,4.085-8.573,1.791c-0.459-0.333-0.627-0.943-0.645-1.51C2.185,27.3,16.447,25.245,21.06,23.858
	c2.999-0.902,5.985-2.116,8.299-4.228c5.724-5.226,3.39-15.407-5.103-15.6c-8.448-0.192-13.313,9.853-10.667,17.077
	c1.565,4.275,5.583,7.585,10.098,8.171c4.513,0.589,9.305-1.638,11.66-5.535c2.023-3.344,2.095-7.594,4.397-10.751
	c2.296-3.145,6.3-5.114,10.15-5.245c8.484-0.292,13.969,6.426,14.607,14.387c2.377,29.634-31.392,39.188-50.701,19.063"/>
</svg>
