<?xml version="1.0" encoding="utf-8"?>
<!-- Generator: Adobe Illustrator 15.0.0, SVG Export Plug-In . SVG Version: 6.00 Build 0)  -->
<!DOCTYPE svg PUBLIC "-//W3C//DTD SVG 1.1//EN" "http://www.w3.org/Graphics/SVG/1.1/DTD/svg11.dtd">
<svg version="1.1" id="Calque_1" xmlns="http://www.w3.org/2000/svg" xmlns:xlink="http://www.w3.org/1999/xlink" x="0px" y="0px"
	 width="101.6px" height="63.935px" viewBox="0 0 101.6 63.935" enable-background="new 0 0 101.6 63.935" xml:space="preserve">
<g>
	<path fill="#A2B8D3" d="M81.915,17.734l-18.116,29.44l-34.175-29.44H81.915 M101.6,6.734H0l66.4,57.2L101.6,6.734L101.6,6.734z"/>
</g>
<g>
	
		<circle fill="none" stroke="#435257" stroke-width="4" stroke-linecap="round" stroke-linejoin="round" stroke-miterlimit="10" cx="62" cy="35.615" r="6"/>
	
		<circle fill="none" stroke="#435257" stroke-width="4" stroke-linecap="round" stroke-linejoin="round" stroke-miterlimit="10" cx="31.2" cy="47.334" r="6"/>
	
		<circle fill="none" stroke="#435257" stroke-width="4" stroke-linecap="round" stroke-linejoin="round" stroke-miterlimit="10" cx="68" cy="8.951" r="6"/>
	
		<circle fill="none" stroke="#435257" stroke-width="4" stroke-linecap="round" stroke-linejoin="round" stroke-miterlimit="10" cx="32.4" cy="14.951" r="3"/>
	
		<circle fill="none" stroke="#435257" stroke-width="4" stroke-linecap="round" stroke-linejoin="round" stroke-miterlimit="10" cx="85.6" cy="53.334" r="3"/>
</g>
<g>
	<path fill="#435257" d="M72.824,16.771c-0.901,0.557-1.9,0.973-2.971,1.192L81.915,48.38c0.853-0.638,1.868-1.046,2.978-1.174
		L72.824,16.771z"/>
	<path fill="#435257" d="M68.274,42.326l11.582,8.697c0.41-1.016,1.09-1.881,1.939-2.547l-11.597-8.706
		C69.708,40.732,69.055,41.596,68.274,42.326"/>
	<path fill="#435257" d="M67.575,18.13c-1.103-0.052-2.156-0.287-3.125-0.693l-2.023,9c1.101,0.052,2.155,0.287,3.122,0.693
		L67.575,18.13z"/>
	<path fill="#435257" d="M55.492,29.12L38.208,17.055c-0.376,1.032-1.015,1.924-1.839,2.619l17.295,12.074
		C54.121,30.769,54.736,29.876,55.492,29.12"/>
	<path fill="#435257" d="M33.134,38.342l0.644-17.358c-0.445,0.104-0.902,0.167-1.378,0.167c-0.637,0-1.24-0.123-1.818-0.302
		l-0.646,17.384c0.415-0.057,0.833-0.097,1.264-0.097C31.864,38.135,32.511,38.209,33.134,38.342"/>
	<path fill="#435257" d="M40.37,46.736c0.013,0.198,0.03,0.396,0.03,0.598c0,0.897-0.136,1.763-0.375,2.585l39.471,4.353
		c-0.047-0.309-0.096-0.615-0.096-0.938c0-0.793,0.164-1.547,0.438-2.245L40.37,46.736z"/>
	<path fill="#435257" d="M54.114,40.33c-0.546-0.91-0.94-1.914-1.146-2.989l-13.881,5.281c0.543,0.907,0.94,1.912,1.145,2.987
		L54.114,40.33z"/>
</g>
</svg>
