<?xml version="1.0" encoding="utf-8"?>
<!-- Generator: Adobe Illustrator 15.0.0, SVG Export Plug-In . SVG Version: 6.00 Build 0)  -->
<!DOCTYPE svg PUBLIC "-//W3C//DTD SVG 1.1//EN" "http://www.w3.org/Graphics/SVG/1.1/DTD/svg11.dtd">
<svg version="1.1" id="Calque_1" xmlns="http://www.w3.org/2000/svg" xmlns:xlink="http://www.w3.org/1999/xlink" x="0px" y="0px"
	 width="130.825px" height="79.345px" viewBox="0 0 130.825 79.345" enable-background="new 0 0 130.825 79.345"
	 xml:space="preserve">
<g>
	<path fill="#177595" d="M87.355,26.411c0-8.079-6.551-14.628-14.629-14.628c-2.665,0-5.163-0.508-7.313,0.738
		c-2.153-1.246-4.65-0.738-7.316-0.738c-8.079,0-14.628,6.549-14.628,14.628c0,4.48,2.108,8.775,5.635,11.533
		c4.55,3.786,10.393,5.866,16.309,5.866c6.189,0,11.864-2.196,16.291-5.853C85.141,35.28,87.355,31.105,87.355,26.411z"/>
	<path fill="#FFFFFF" d="M73.008,17.2c-1.566,0-3.108,0.413-4.459,1.195l-0.945,0.547c2.824,1.855,4.689,5.047,4.689,8.677
		c0,4.981-3.508,9.137-8.187,10.145c0.527,0.042,1.056,0.066,1.589,0.066c4.614,0,9.109-1.615,12.661-4.548l0.063-0.052l0.064-0.05
		c2.196-1.71,3.455-4.279,3.455-7.05C81.938,21.205,77.932,17.2,73.008,17.2z"/>
	<g>
		<path fill="#177595" d="M75.904,26.521c0,0,1.559,1.2,2.221,1.2c0.663,0,1.2-0.538,1.2-1.2c0-0.664-0.537-1.2-1.2-1.2
			C77.463,25.322,75.904,26.521,75.904,26.521z"/>
		<path fill="#177595" d="M74.125,29.871c0,0,0.254,1.951,0.722,2.42c0.469,0.468,1.229,0.468,1.698,0
			c0.468-0.469,0.468-1.228,0-1.698C76.076,30.125,74.125,29.871,74.125,29.871z"/>
		<path fill="#177595" d="M74.125,23.171c0,0,1.951-0.253,2.42-0.722c0.468-0.468,0.468-1.229,0-1.697
			c-0.469-0.468-1.229-0.468-1.698,0C74.379,21.22,74.125,23.171,74.125,23.171z"/>
	</g>
	<path fill="#A0C6D3" d="M71.481,9.859c2.197-0.04,4.927,0.465,8.786,1.414c-1.331-2.003-3.4-3.522-5.933-4.095
		c-2.689-0.608-5.364-0.029-7.492,1.384V2.385h-2.294v6.177c-2.128-1.413-4.803-1.992-7.492-1.384
		c-2.533,0.573-4.601,2.092-5.932,4.095c3.865-0.951,6.596-1.457,8.797-1.416c-4.393,0.923-7.692,4.815-7.698,9.481
		c3.578-3.544,8.255-5.969,13.473-6.742c5.217,0.773,9.894,3.198,13.47,6.742C79.161,14.676,75.868,10.788,71.481,9.859z"/>
</g>
<g>
	<path fill="#333333" d="M14.721,63.46c1.109,1.041,1.664,2.905,1.664,5.591c0,1.406-0.181,2.624-0.546,3.656
		c-0.364,1.031-0.858,1.815-1.482,2.353c-1.18,1.04-2.566,1.562-4.162,1.562c-2.115,0-3.979-0.6-5.591-1.795V56.75l3.979-0.443
		v5.696l-0.363,0.962l0.104,0.079c0.728-0.606,1.738-0.911,3.03-0.911C12.644,62.134,13.767,62.576,14.721,63.46z M8.582,73.084
		c0.399,0.295,0.815,0.443,1.25,0.443c0.432,0,0.749-0.035,0.949-0.105c0.199-0.069,0.411-0.233,0.637-0.494
		c0.485-0.503,0.728-1.625,0.728-3.369c0-1.743-0.16-2.901-0.48-3.472c-0.322-0.573-0.82-0.858-1.496-0.858
		c-0.677,0-1.207,0.234-1.587,0.702V73.084z"/>
	<path fill="#333333" d="M22.965,71.549c0,0.85,0.056,1.475,0.169,1.873c0.112,0.399,0.395,0.876,0.845,1.431l-2.86,2.107
		c-0.833-0.886-1.401-1.66-1.705-2.328c-0.304-0.667-0.455-1.669-0.455-3.004V57.114l4.005-0.442V71.549z"/>
	<path fill="#333333" d="M30.144,76.623c-1.249,0-2.228-0.381-2.939-1.145c-0.711-0.764-1.066-1.813-1.066-3.148v-9.702l3.979-0.364
		v9.572c0,1.127,0.52,1.691,1.562,1.691c0.658,0,1.222-0.252,1.69-0.755V62.628l4.005-0.364v10.04l0.286,3.771l-3.121,0.391
		l-0.338-1.586h-0.104C33.074,76.04,31.756,76.623,30.144,76.623z"/>
	<path fill="#333333" d="M50.092,62.654h3.719L53.5,64.631h-3.408v6.347c0,1.352,0.117,2.292,0.351,2.821
		c0.235,0.53,0.767,0.793,1.6,0.793c0.468,0,0.928-0.094,1.378-0.285l0.677,1.483c-0.208,0.208-0.589,0.399-1.145,0.571
		c-0.556,0.173-1.059,0.261-1.51,0.261c-1.525,0-2.522-0.426-2.99-1.274c-0.468-0.85-0.701-2.254-0.701-4.215v-6.502h-2.238
		l0.26-1.82l1.978-0.156l0.128-2.861l2.211-0.65V62.654z"/>
	<path fill="#333333" d="M59.391,62.94c0.807-0.399,1.751-0.599,2.835-0.599c1.083,0,1.993,0.208,2.731,0.624
		c0.737,0.417,1.278,0.998,1.626,1.744c0.606,1.335,0.911,2.972,0.911,4.916c0,1.872-0.434,3.458-1.3,4.759
		c-0.452,0.694-1.081,1.241-1.886,1.638c-0.807,0.399-1.751,0.6-2.835,0.6c-1.085,0-1.995-0.209-2.732-0.624
		c-0.736-0.417-1.279-1.007-1.625-1.77c-0.607-1.318-0.91-2.948-0.91-4.89c0-1.873,0.433-3.467,1.301-4.786
		C57.957,63.876,58.585,63.34,59.391,62.94z M64.15,65.358c-0.233-0.276-0.551-0.502-0.949-0.675
		c-0.399-0.174-0.88-0.261-1.444-0.261c-0.563,0-1.045,0.104-1.444,0.312c-0.398,0.208-0.702,0.455-0.91,0.741
		c-0.208,0.287-0.363,0.689-0.468,1.211c-0.156,0.779-0.233,1.621-0.233,2.522c0,0.902,0.017,1.564,0.051,1.989
		c0.035,0.427,0.117,0.864,0.248,1.313c0.13,0.452,0.316,0.816,0.56,1.093c0.52,0.625,1.317,0.937,2.393,0.937
		c0.555,0,1.03-0.104,1.429-0.312c0.399-0.208,0.703-0.456,0.911-0.743c0.208-0.284,0.365-0.688,0.469-1.208
		c0.155-0.78,0.233-1.622,0.233-2.523c0-0.901-0.017-1.564-0.052-1.99c-0.035-0.424-0.117-0.862-0.247-1.313
		C64.567,66.002,64.385,65.636,64.15,65.358z"/>
	<path fill="#333333" d="M73.526,64.06c0.781-1.146,1.955-1.718,3.525-1.718c1.568,0,2.683,0.599,3.342,1.795
		c0.918-1.197,2.218-1.795,3.901-1.795c1.283,0,2.263,0.408,2.938,1.223c0.677,0.815,1.015,1.942,1.015,3.382v9.364h-2.341v-9.208
		c0-1.785-0.771-2.679-2.315-2.679c-1.162,0-2.028,0.417-2.601,1.248V76.31h-2.34v-9.208c0-1.785-0.772-2.679-2.315-2.679
		c-1.162,0-2.028,0.417-2.601,1.248V76.31h-2.34V66.4l-0.209-3.616l1.899-0.259l0.338,1.535H73.526z"/>
	<path fill="#333333" d="M98.938,66.789c0-1.578-0.719-2.366-2.159-2.366c-0.919,0-2.159,0.243-3.719,0.728l-0.833-1.638
		c1.492-0.781,3.104-1.171,4.839-1.171c2.097,0,3.38,0.624,3.849,1.873c0.243,0.642,0.365,1.492,0.365,2.55v5.539
		c0,1.249,0.355,2.237,1.066,2.965l-1.378,1.354c-0.313-0.192-0.629-0.474-0.95-0.847c-0.321-0.371-0.542-0.741-0.664-1.104h-0.078
		c-0.954,1.301-2.271,1.951-3.954,1.951c-2.479,0-3.719-1.292-3.719-3.875c0-2.289,1.613-3.669,4.837-4.137l2.497-0.363V66.789z
		 M94.101,73.033c0,1.005,0.619,1.508,1.86,1.508c1.239,0,2.231-0.433,2.977-1.301v-3.173c-2.185,0.295-3.528,0.642-4.032,1.042
		C94.37,71.542,94.101,72.183,94.101,73.033z"/>
	<path fill="#333333" d="M108.822,62.654h3.718l-0.312,1.977h-3.407v6.347c0,1.352,0.117,2.292,0.352,2.821
		c0.234,0.53,0.766,0.793,1.599,0.793c0.467,0,0.927-0.094,1.378-0.285l0.676,1.483c-0.208,0.208-0.589,0.399-1.143,0.571
		c-0.556,0.173-1.06,0.261-1.51,0.261c-1.525,0-2.522-0.426-2.99-1.274c-0.468-0.85-0.702-2.254-0.702-4.215v-6.502h-2.237
		l0.26-1.82l1.977-0.156l0.129-2.861l2.211-0.65V62.654z"/>
	<path fill="#333333" d="M118.12,62.94c0.806-0.399,1.751-0.599,2.835-0.599c1.083,0,1.993,0.208,2.731,0.624
		c0.737,0.417,1.278,0.998,1.626,1.744c0.606,1.335,0.91,2.972,0.91,4.916c0,1.872-0.434,3.458-1.3,4.759
		c-0.451,0.694-1.08,1.241-1.885,1.638c-0.807,0.399-1.752,0.6-2.835,0.6c-1.084,0-1.995-0.209-2.731-0.624
		c-0.737-0.417-1.279-1.007-1.625-1.77c-0.607-1.318-0.911-2.948-0.911-4.89c0-1.873,0.434-3.467,1.3-4.786
		C116.685,63.876,117.313,63.34,118.12,62.94z M122.879,65.358c-0.234-0.276-0.551-0.502-0.949-0.675
		c-0.399-0.174-0.881-0.261-1.444-0.261c-0.564,0-1.045,0.104-1.444,0.312c-0.399,0.208-0.701,0.455-0.909,0.741
		c-0.208,0.287-0.365,0.689-0.469,1.211c-0.155,0.779-0.234,1.621-0.234,2.522c0,0.902,0.018,1.564,0.053,1.989
		c0.035,0.427,0.117,0.864,0.246,1.313c0.13,0.452,0.317,0.816,0.56,1.093c0.521,0.625,1.317,0.937,2.393,0.937
		c0.554,0,1.031-0.104,1.431-0.312c0.398-0.208,0.702-0.456,0.91-0.743c0.209-0.284,0.365-0.688,0.469-1.208
		c0.156-0.78,0.234-1.622,0.234-2.523c0-0.901-0.018-1.564-0.053-1.99c-0.035-0.424-0.116-0.862-0.246-1.313
		C123.296,66.002,123.114,65.636,122.879,65.358z"/>
</g>
</svg>
